<?xml version="1.0" standalone="no"?>
<!DOCTYPE svg PUBLIC "-//W3C//DTD SVG 20010904//EN"
 "http://www.w3.org/TR/2001/REC-SVG-20010904/DTD/svg10.dtd">
<svg version="1.0" xmlns="http://www.w3.org/2000/svg"
 width="960.000000pt" height="960.000000pt" viewBox="0 0 960.000000 960.000000"
 preserveAspectRatio="xMidYMid meet">
<metadata>
Created by potrace 1.16, written by Peter Selinger 2001-2019
</metadata>
<g transform="translate(0.000000,960.000000) scale(0.100000,-0.100000)"
fill="#000000" stroke="none">
<path d="M0 4800 l0 -4800 4800 0 4800 0 0 4800 0 4800 -4800 0 -4800 0 0
-4800z m5155 4656 c205 -7 272 -15 475 -52 177 -33 348 -70 475 -105 157 -44
481 -158 580 -205 17 -8 50 -22 75 -32 51 -20 357 -175 440 -223 146 -85 160
-93 160 -101 0 -5 5 -8 11 -8 25 0 439 -297 500 -359 14 -14 42 -39 63 -56 20
-16 63 -55 95 -85 32 -30 67 -62 77 -71 28 -23 211 -215 279 -293 33 -38 77
-87 98 -110 20 -22 37 -44 37 -48 0 -4 8 -15 18 -25 23 -23 75 -90 124 -161
97 -139 218 -322 218 -328 0 -3 9 -18 19 -33 63 -88 272 -515 341 -696 80
-211 193 -580 204 -665 2 -19 15 -89 29 -155 48 -226 88 -558 88 -727 0 -29 1
-91 3 -138 10 -260 -45 -770 -110 -1022 -8 -31 -17 -78 -20 -105 -3 -26 -8
-51 -10 -55 -3 -4 -18 -56 -35 -115 -75 -272 -174 -532 -300 -792 -107 -218
-182 -351 -298 -524 -47 -71 -90 -136 -96 -145 -5 -9 -37 -52 -71 -96 -33 -45
-78 -103 -98 -131 -72 -94 -300 -347 -388 -428 -35 -32 -85 -80 -113 -106
-108 -102 -258 -224 -420 -338 -44 -31 -82 -60 -85 -63 -10 -12 -279 -179
-365 -227 -301 -167 -660 -319 -960 -407 -66 -20 -142 -42 -170 -50 -106 -32
-451 -95 -660 -121 -650 -81 -1419 5 -2064 230 -256 89 -537 215 -776 348 -77
42 -339 205 -370 229 -5 5 -77 58 -160 120 -82 61 -163 123 -179 137 -16 14
-43 38 -60 53 -217 190 -482 466 -626 653 -33 44 -68 91 -78 105 -9 14 -44 63
-77 110 -77 106 -193 288 -231 360 -16 30 -31 57 -35 60 -8 7 -171 340 -212
435 -19 44 -52 125 -72 180 -20 55 -41 109 -45 120 -36 86 -95 300 -154 560
-87 379 -123 788 -103 1190 4 72 7 148 8 170 6 181 102 716 165 920 71 230
149 452 189 540 8 17 24 53 36 80 29 66 170 349 199 400 12 22 36 65 52 95 17
30 39 66 49 80 10 14 67 97 125 185 58 88 114 167 125 177 10 9 19 20 19 25 0
4 13 22 28 38 15 17 41 48 57 70 45 60 47 62 236 266 123 132 378 366 514 472
6 4 37 29 70 55 82 65 359 248 476 315 184 106 471 243 674 322 39 15 79 31
90 35 191 78 760 217 1005 245 30 4 73 9 95 11 22 3 112 8 200 10 88 3 182 8
209 12 27 4 102 4 165 0 64 -4 175 -10 246 -12z"/>
<path d="M4598 9104 c-3 -2 -47 -6 -100 -9 -204 -11 -626 -85 -810 -141 -215
-66 -342 -110 -488 -169 -700 -283 -1316 -744 -1780 -1335 -41 -52 -91 -118
-109 -145 -19 -28 -37 -52 -40 -55 -9 -8 -107 -153 -112 -165 -2 -5 -35 -61
-72 -124 -92 -152 -211 -390 -272 -541 -14 -36 -33 -80 -41 -98 -15 -32 -91
-266 -138 -422 -38 -128 -91 -391 -120 -600 -57 -407 -44 -904 33 -1310 11
-58 27 -143 36 -190 19 -101 94 -367 125 -445 4 -11 20 -56 36 -100 78 -227
245 -572 387 -800 70 -111 223 -335 236 -345 4 -3 34 -39 66 -80 143 -183 340
-390 510 -539 100 -87 315 -259 397 -317 46 -32 316 -202 359 -225 131 -71
349 -176 464 -223 77 -31 149 -61 160 -66 32 -14 260 -86 377 -120 93 -26 154
-41 233 -55 11 -2 72 -13 135 -25 501 -91 971 -94 1490 -9 222 37 271 48 465
104 419 122 780 281 1119 494 162 102 231 148 295 201 13 11 27 20 30 20 3 0
29 20 56 45 28 24 56 45 63 45 6 0 12 4 12 8 0 4 35 37 77 72 128 106 328 306
452 451 135 158 182 216 195 238 5 9 16 22 24 30 7 8 35 45 60 83 313 465 494
852 640 1368 30 106 50 190 58 245 3 17 9 50 14 75 93 432 105 1004 30 1470
-26 156 -77 410 -95 470 -61 200 -112 357 -137 420 -39 98 -43 108 -62 152 -9
20 -16 39 -16 42 0 8 -169 348 -199 401 -13 22 -35 60 -49 85 -14 25 -63 101
-109 170 -283 426 -546 712 -950 1036 -73 59 -261 192 -344 244 -46 29 -100
63 -119 75 -90 57 -381 204 -515 260 -49 20 -108 45 -130 55 -43 19 -313 108
-410 135 -33 10 -80 23 -105 31 -25 7 -59 15 -75 18 -17 3 -52 10 -80 16 -219
45 -421 76 -570 87 -98 8 -581 14 -587 7z m70 -261 c-9 -10 -36 -59 -61 -109
-43 -86 -45 -93 -38 -150 8 -66 15 -84 37 -84 35 0 1 -16 -38 -18 -24 -1 -61
-5 -83 -8 -39 -6 -39 -5 -17 11 29 21 30 95 2 148 -35 66 -116 172 -133 175
-14 3 -16 -4 -12 -45 4 -43 3 -45 -7 -21 -13 31 -65 62 -93 56 -23 -4 -23 -10
1 -188 18 -125 26 -149 52 -151 17 -1 -130 -27 -158 -28 -8 0 -3 7 13 15 32
17 31 12 12 140 -8 54 -16 119 -19 144 -3 25 -5 46 -5 48 -1 1 -9 2 -20 2 -29
0 -71 -39 -71 -65 0 -13 -4 -26 -9 -29 -10 -7 -23 86 -13 96 7 7 288 43 412
53 57 5 71 3 58 -5 -24 -15 -23 -23 9 -73 15 -23 32 -51 38 -61 19 -36 31 -27
64 45 33 73 34 98 4 100 -19 2 37 15 71 18 17 1 18 -1 4 -16z m727 -44 c19 -7
19 -8 -2 -8 -12 -1 -24 -5 -27 -10 -9 -14 -25 -139 -28 -217 -4 -90 13 -114
78 -114 74 0 89 28 105 185 l12 118 -24 20 -24 19 55 -5 c30 -4 57 -6 60 -7 3
0 -6 -6 -20 -13 -23 -12 -26 -21 -37 -120 -14 -126 -25 -166 -56 -195 -46 -43
-161 -36 -206 12 -25 26 -28 70 -17 224 7 100 6 112 -8 112 -9 0 -16 4 -16 9
0 10 125 2 155 -10z m-1444 -36 c-19 -17 -20 -20 -6 -83 8 -36 22 -99 31 -140
17 -79 37 -112 60 -103 8 3 14 0 14 -5 0 -6 -17 -14 -37 -18 -62 -10 -207 -42
-223 -48 -10 -4 -41 18 -90 63 -41 39 -79 69 -85 67 -12 -4 -9 -36 11 -98 13
-41 19 -48 42 -48 41 0 14 -15 -53 -30 -33 -7 -68 -17 -77 -22 -11 -5 -18 -5
-18 1 0 5 7 11 15 15 8 3 15 16 15 28 0 25 -63 269 -74 287 -4 6 -17 11 -29
12 -21 0 -21 1 3 11 54 22 167 48 211 48 64 0 99 -28 99 -80 0 -30 -7 -46 -27
-65 l-28 -26 45 -41 c84 -76 108 -91 135 -84 27 7 30 22 16 91 -47 225 -51
235 -81 235 -39 0 -19 19 28 26 26 4 56 10 67 15 11 4 28 8 39 8 17 1 17 0 -3
-16z m1734 -17 c31 -8 54 -21 60 -33 6 -11 33 -68 60 -126 28 -58 54 -105 60
-103 11 3 44 128 45 167 0 16 -7 29 -16 33 -34 13 -5 16 39 4 41 -11 44 -13
25 -22 -24 -12 -24 -12 -69 -203 -19 -79 -36 -143 -39 -143 -3 0 -41 75 -85
166 -43 91 -82 167 -86 170 -7 4 -59 -205 -59 -235 0 -8 8 -20 18 -27 22 -17
9 -17 -53 0 -27 8 -40 15 -29 15 12 1 26 7 32 14 6 7 25 72 43 145 30 124 30
133 15 157 -15 22 -20 36 -13 35 1 -1 25 -7 52 -14z m429 -113 c21 -7 47 -13
57 -13 11 0 19 -4 19 -10 0 -5 -7 -7 -15 -4 -21 8 -42 -11 -54 -49 -84 -276
-83 -271 -6 -282 51 -8 73 -2 104 26 12 12 25 19 27 16 7 -7 -22 -73 -35 -81
-11 -7 -251 57 -281 74 -12 8 -10 9 8 10 29 0 31 6 92 223 22 76 22 78 4 98
-18 20 -18 20 11 13 17 -4 47 -13 69 -21z m-2731 0 c-21 -7 -15 -35 27 -136
51 -123 57 -162 31 -203 -24 -39 -94 -74 -148 -74 -57 0 -85 32 -142 166 -42
99 -49 109 -76 115 -27 5 -28 7 -10 14 11 5 44 19 74 32 64 28 80 29 58 6 -14
-17 -12 -27 33 -136 56 -138 70 -157 117 -157 42 0 93 46 93 83 0 25 -74 221
-93 245 -5 6 -21 12 -35 12 -14 0 -22 3 -18 8 12 12 91 40 96 35 3 -3 -1 -8
-7 -10z m-353 -175 c28 -61 26 -77 -5 -48 -37 34 -120 40 -157 10 -23 -18 -28
-29 -28 -66 0 -118 102 -258 175 -240 35 9 86 56 102 94 16 38 29 37 19 -2 -9
-37 -56 -87 -101 -107 -45 -21 -116 -25 -148 -8 -74 38 -124 132 -114 215 9
80 91 154 172 154 24 0 39 6 47 20 7 11 14 20 16 20 2 0 12 -19 22 -42z m3496
29 c69 -27 124 -98 124 -162 0 -80 -52 -164 -117 -191 -46 -20 -122 -17 -163
5 -49 25 -100 95 -100 135 0 17 -6 38 -12 45 -11 10 -10 14 5 22 9 6 17 16 17
24 0 37 60 104 112 124 32 13 97 12 134 -2z m-3851 -184 c29 -44 33 -63 7 -40
-11 10 -35 17 -58 17 -40 0 -104 -31 -104 -51 0 -18 64 -119 76 -119 6 0 19 9
29 20 13 15 16 28 11 57 -7 36 -5 34 42 -37 52 -78 58 -98 19 -62 -32 30 -87
27 -87 -5 0 -23 69 -123 85 -123 8 0 35 19 60 43 40 38 45 49 46 88 l1 44 19
-40 c10 -22 19 -47 19 -55 0 -8 -43 -41 -98 -74 -53 -33 -108 -68 -121 -78
-31 -24 -49 -23 -27 1 20 22 22 17 -70 166 -74 119 -81 126 -113 118 -14 -3
-23 -3 -20 1 5 6 247 161 256 165 1 1 14 -16 28 -36z m2365 7 c395 -29 754
-106 1080 -232 129 -50 387 -173 495 -235 465 -271 863 -638 1167 -1078 220
-318 412 -739 503 -1097 14 -57 30 -119 35 -138 17 -65 59 -324 70 -435 15
-148 16 -546 2 -670 -7 -55 -14 -122 -17 -149 -6 -60 -17 -122 -50 -281 -32
-159 -125 -460 -182 -595 -9 -19 -22 -51 -30 -70 -25 -58 -148 -301 -182 -358
-17 -29 -31 -55 -31 -57 0 -5 -164 -247 -203 -300 -152 -207 -315 -379 -572
-604 -96 -85 -272 -211 -420 -301 -462 -282 -971 -454 -1511 -510 -226 -24
-679 -13 -874 20 -30 5 -73 12 -94 16 -39 6 -84 15 -231 48 -38 8 -101 25
-140 36 -38 12 -85 26 -103 31 -46 14 -317 116 -339 128 -10 5 -85 43 -168 84
-82 41 -166 84 -185 96 -19 11 -42 24 -50 28 -16 7 -275 180 -300 200 -8 6
-53 42 -100 80 -346 276 -642 623 -872 1023 -65 112 -184 364 -222 470 -15 41
-36 98 -47 125 -34 90 -99 325 -114 414 -3 19 -8 37 -10 41 -3 6 -14 67 -30
170 -2 14 -6 43 -10 65 -13 91 -16 119 -25 315 -14 269 -2 458 49 785 16 105
31 165 105 435 30 109 125 340 211 515 162 329 318 559 560 824 335 369 742
662 1203 866 259 114 650 228 902 261 134 18 227 27 350 33 223 12 236 12 380
1z m1865 -4 c18 -8 48 -28 66 -45 21 -21 38 -29 51 -25 24 7 23 3 -9 -59 l-27
-52 -7 46 c-11 73 -38 110 -90 123 -56 13 -135 -72 -163 -174 -18 -65 -12
-100 20 -131 28 -26 110 -37 143 -20 17 10 21 9 21 -3 0 -19 -57 -30 -111 -23
-82 11 -159 96 -159 175 0 43 27 111 58 144 51 56 135 74 207 44z m285 -185
c33 -21 34 -22 7 -17 -25 6 -31 1 -67 -55 -22 -34 -38 -64 -36 -67 6 -5 160
28 177 39 12 7 12 12 1 30 -7 11 -12 22 -10 24 2 1 31 -17 65 -40 l62 -42 -50
5 c-27 2 -77 -1 -111 -8 l-60 -13 5 -51 c17 -145 29 -222 39 -233 20 -24 -9
-14 -64 22 -29 19 -61 38 -70 41 -28 9 -21 22 8 16 l27 -5 -8 74 c-4 41 -8 83
-9 93 -2 32 -23 29 -44 -6 -44 -70 -51 -91 -41 -110 13 -24 9 -23 -49 15 -28
17 -59 37 -69 44 -16 11 -15 12 10 12 24 1 36 14 91 99 101 156 102 160 88
182 -19 31 -15 31 31 1 23 -15 58 -38 77 -50z m-4820 -15 c16 -25 30 -47 30
-50 0 -3 -16 4 -35 16 -42 24 -111 20 -132 -8 -20 -28 -15 -62 11 -80 21 -13
35 -14 99 -4 77 11 114 5 149 -27 21 -19 32 -64 23 -102 -8 -37 -61 -91 -96
-98 -15 -3 -38 -15 -50 -26 -14 -13 -24 -17 -26 -10 -3 7 -17 30 -33 51 -34
48 -28 61 12 27 39 -33 97 -34 134 -2 23 20 26 28 20 59 -4 20 -14 39 -23 43
-10 3 -52 3 -95 -1 -87 -7 -128 3 -152 41 -46 70 0 156 97 179 15 3 27 13 27
21 0 23 7 18 40 -29z m-1398 -3144 l45 -97 94 -24 c52 -12 100 -25 108 -27 10
-3 -12 -32 -67 -87 -76 -76 -81 -84 -77 -117 8 -64 13 -180 7 -180 -3 0 -47
23 -99 50 l-93 51 -96 -41 c-53 -23 -98 -39 -100 -37 -2 2 4 51 14 110 l18
106 -68 83 c-37 46 -68 86 -68 89 0 3 47 12 106 19 l105 13 57 93 c31 52 60
94 63 94 3 0 26 -44 51 -98z m7914 -1 c42 -89 49 -100 78 -105 17 -4 65 -16
107 -27 l76 -20 -79 -77 -79 -77 7 -117 7 -118 -94 52 c-52 28 -99 51 -106 51
-6 0 -52 -17 -103 -38 -50 -21 -93 -36 -95 -33 -3 3 2 43 10 89 22 126 22 126
-50 214 -36 44 -65 83 -65 86 0 3 44 11 98 18 53 7 104 17 112 21 8 4 37 47
65 94 27 47 53 86 58 86 4 0 28 -45 53 -99z m-1903 -3358 c-25 -9 -12 -46 56
-162 77 -130 91 -146 121 -136 47 15 14 -13 -57 -50 -101 -51 -101 -51 -80
-28 9 11 17 25 17 33 0 14 -57 117 -69 125 -8 4 -121 -52 -121 -61 0 -10 62
-113 75 -124 8 -6 24 -9 37 -6 l23 7 -24 -18 c-45 -33 -141 -83 -141 -73 0 5
5 12 10 15 20 13 8 43 -65 164 -42 69 -77 127 -80 129 -2 2 -13 1 -24 -3 -33
-10 -24 -62 33 -190 35 -77 67 -167 62 -172 -3 -3 -11 -1 -18 4 -7 6 -58 34
-113 63 -55 29 -126 66 -157 83 -60 32 -77 32 -59 0 6 -10 27 -56 47 -103 41
-98 49 -110 78 -111 14 0 6 -7 -24 -19 -50 -21 -88 -27 -57 -9 26 15 22 35
-36 174 -50 120 -55 129 -88 140 l-34 12 58 21 c50 19 61 20 80 8 45 -28 237
-126 246 -126 9 0 -18 72 -57 150 -14 28 -23 35 -45 33 -37 -2 -34 14 3 22 17
4 36 12 43 19 21 20 159 97 165 91 3 -3 0 -11 -6 -17 -18 -18 -15 -32 21 -92
l33 -55 61 35 61 34 -35 60 c-32 53 -40 60 -67 60 -27 0 -22 5 49 44 44 25 82
42 85 39 3 -3 -1 -8 -7 -10z m-4372 -38 c43 -25 82 -45 87 -45 5 0 28 -20 50
-44 64 -70 67 -134 10 -221 -42 -64 -79 -85 -148 -85 -48 0 -69 8 -165 59
-102 55 -107 60 -76 63 27 2 37 11 58 48 14 25 47 82 74 126 54 90 56 99 32
126 -25 28 -6 22 78 -27z m423 -322 c-5 -65 -9 -156 -9 -202 0 -82 1 -84 25
-87 14 -2 30 0 37 4 6 4 34 68 62 142 47 126 49 136 36 163 -14 29 -14 29 13
23 83 -20 77 -11 145 -204 19 -51 37 -94 42 -95 4 -1 23 38 42 87 l34 89 -23
25 c-21 23 -21 25 -3 18 11 -5 34 -13 50 -18 40 -14 54 -28 28 -28 -11 0 -25
-6 -30 -12 -8 -11 -93 -230 -117 -302 -12 -37 -20 -21 -107 219 -22 60 -43
113 -47 117 -4 4 -27 -47 -51 -114 -42 -115 -43 -122 -26 -135 29 -20 12 -25
-35 -8 -23 8 -51 15 -62 15 -10 0 -53 18 -96 41 -42 22 -65 38 -50 35 31 -7
48 14 48 58 0 21 -10 31 -59 55 l-58 30 -34 -29 c-34 -28 -34 -28 -15 -49 24
-27 14 -27 -42 1 l-45 21 32 11 c29 10 169 120 265 208 23 21 45 38 50 38 5 0
5 -51 0 -117z m3223 16 c-26 -15 -21 -38 33 -170 56 -137 71 -159 103 -152 31
8 10 -12 -28 -25 -16 -6 -54 -19 -82 -30 -29 -11 -53 -17 -53 -12 0 4 7 10 15
14 25 9 17 45 -38 181 -51 125 -70 149 -88 115 -4 -8 -18 -97 -30 -198 -12
-100 -26 -181 -30 -180 -4 2 -62 72 -128 156 -89 111 -128 152 -144 152 -36 0
-5 16 63 33 36 8 73 18 83 22 10 4 17 3 17 -4 0 -6 -6 -11 -14 -11 -30 0 -24
-31 16 -82 22 -29 54 -72 71 -96 21 -28 33 -38 38 -30 10 21 29 205 23 222 -3
9 -18 16 -33 16 -29 1 -43 -5 123 58 43 17 81 33 84 36 3 3 8 3 11 0 3 -3 -2
-10 -12 -15z m-2469 -160 c39 -19 69 -28 82 -24 11 3 20 5 20 3 -1 -10 -38
-109 -42 -114 -3 -3 -9 12 -13 33 -12 64 -63 113 -119 113 -66 0 -136 -122
-139 -241 -1 -65 17 -91 75 -107 44 -12 60 1 76 61 8 30 7 40 -5 52 -8 8 -19
15 -25 15 -6 0 -9 3 -5 6 8 8 177 -39 177 -48 0 -5 -11 -8 -24 -8 -17 0 -27
-8 -36 -32 -32 -88 -24 -81 -97 -75 -132 12 -211 75 -221 177 -8 88 36 166
113 201 59 27 112 24 183 -12z m1836 -50 c3 -17 6 -43 6 -58 l-1 -26 -27 31
c-35 41 -61 54 -112 54 -80 0 -112 -65 -90 -186 19 -113 52 -154 123 -154 46
0 88 20 116 56 26 33 39 25 16 -10 -25 -38 -75 -65 -136 -72 -76 -9 -145 21
-181 77 -100 155 14 326 202 304 41 -5 60 -4 60 4 0 24 18 9 24 -20z m-1259
-45 c151 -73 128 -304 -36 -353 l-39 -12 15 -29 c18 -34 43 -50 79 -50 14 0
26 -5 26 -11 0 -8 -21 -10 -64 -7 -73 4 -139 41 -159 87 -7 15 -31 44 -54 65
-52 46 -68 93 -59 168 17 134 161 205 291 142z m824 -12 c20 -10 50 -38 66
-61 26 -36 30 -52 30 -104 0 -76 -23 -119 -84 -162 -38 -27 -51 -30 -115 -30
-64 0 -78 4 -114 29 -73 50 -102 155 -67 239 17 40 76 93 120 107 42 13 121 4
164 -18z m-533 5 c3 -3 -7 -7 -21 -11 l-25 -6 0 -149 c0 -135 2 -149 20 -166
20 -18 71 -22 111 -10 33 11 47 55 49 155 3 167 3 167 -27 178 -24 9 -19 11
35 11 40 1 61 -3 57 -9 -3 -5 -12 -10 -19 -10 -14 0 -26 -99 -26 -207 0 -71
-21 -115 -66 -136 -70 -34 -173 -15 -204 36 -17 28 -20 51 -20 170 0 130 -1
139 -20 144 -11 3 -20 9 -20 14 0 8 168 4 176 -4z"/>
<path d="M6431 8451 c-42 -45 -83 -138 -88 -202 -5 -52 -3 -60 20 -83 17 -17
37 -26 58 -26 67 0 150 133 152 244 1 41 -3 52 -27 72 -38 33 -81 31 -115 -5z"/>
<path d="M4630 8033 c-109 -6 -328 -35 -440 -59 -14 -2 -47 -9 -75 -14 -27 -5
-72 -16 -100 -24 -27 -8 -68 -20 -90 -26 -22 -6 -87 -27 -145 -47 -619 -210
-1161 -600 -1560 -1123 -60 -78 -178 -253 -223 -330 -52 -88 -185 -366 -192
-400 -4 -19 -20 -59 -35 -90 -41 -81 -99 -266 -145 -460 -107 -457 -99 -1032
20 -1505 153 -604 454 -1130 891 -1555 119 -116 159 -151 289 -255 63 -50 240
-172 290 -201 11 -6 61 -34 110 -63 87 -50 174 -94 317 -159 245 -112 681
-224 968 -249 119 -10 546 -10 661 0 208 18 512 85 741 163 193 66 409 165
587 270 l98 57 -5 76 c-4 69 -2 79 22 114 l27 39 -66 63 c-82 80 -96 111 -83
185 13 71 12 124 -2 151 -17 31 -19 315 -2 354 14 35 53 210 82 370 11 61 28
133 36 160 26 79 105 226 183 340 68 99 76 110 106 145 17 20 41 51 55 70 47
65 125 153 153 174 42 31 165 35 227 7 38 -17 54 -34 99 -105 102 -163 131
-250 195 -586 56 -290 59 -315 48 -366 -50 -223 187 236 299 579 58 176 120
451 134 592 3 28 10 91 15 140 5 50 10 180 10 290 -1 416 -69 786 -217 1175
-45 118 -210 462 -225 468 -4 2 -8 8 -8 14 0 6 -11 26 -25 44 -14 18 -25 36
-25 39 0 26 -308 431 -336 442 -8 3 -14 11 -14 18 0 21 -250 257 -266 251 -8
-3 -14 1 -14 9 0 27 -141 140 -164 132 -6 -2 -11 -17 -11 -32 0 -26 -10 -35
-80 -76 -85 -50 -97 -64 -67 -73 11 -4 22 -16 25 -26 6 -24 32 -26 41 -3 6 14
9 14 26 -5 11 -12 20 -24 20 -26 0 -3 -17 -13 -37 -21 -27 -11 -38 -12 -44 -4
-5 9 -15 9 -38 1 -17 -6 -31 -7 -31 -3 0 10 -73 3 -80 -8 -3 -5 -25 -11 -50
-15 -25 -3 -76 -10 -115 -16 -91 -12 -118 -12 -110 0 3 6 15 10 26 10 10 0 19
5 19 10 0 6 -7 10 -15 10 -19 0 -19 14 0 30 8 7 15 17 15 23 0 6 10 21 22 34
21 22 21 24 3 17 -11 -4 -23 -12 -27 -17 -3 -6 -5 2 -5 16 1 15 7 29 13 31 6
2 9 16 7 29 -4 19 1 29 21 42 14 10 26 22 25 29 0 7 -2 6 -6 -1 -2 -7 -9 -13
-14 -13 -12 0 -12 27 1 32 5 2 11 12 13 23 22 105 36 113 39 23 1 -35 2 -72 2
-83 2 -24 23 -29 59 -16 27 10 27 12 28 108 0 54 4 120 8 146 7 43 6 50 -13
62 -39 25 -262 141 -297 154 -19 8 -61 26 -94 41 -33 15 -76 32 -95 38 -131
40 -208 66 -230 77 -32 16 -285 80 -375 94 -278 46 -513 59 -785 44z m1183
-165 c12 -7 23 -14 25 -15 5 -2 10 -34 11 -67 1 -28 2 -28 51 -24 46 5 50 3
58 -20 7 -23 -3 -180 -13 -190 -2 -3 -24 -5 -47 -6 l-43 -1 -5 -242 c-3 -133
-8 -244 -12 -248 -11 -11 -17 70 -21 282 -3 139 -8 207 -16 217 -7 8 -12 43
-12 83 1 37 1 77 0 87 0 11 5 22 12 26 15 10 22 97 9 105 -6 3 -17 -1 -26 -9
-8 -9 -21 -16 -28 -16 -7 0 -21 -8 -32 -17 -24 -23 -129 -73 -151 -73 -9 0
-22 -8 -29 -17 -8 -11 -13 -13 -14 -5 0 7 -12 -1 -27 -17 -27 -28 -29 -28 -44
-11 -16 17 -15 19 22 36 21 11 39 22 39 27 0 4 9 7 20 7 11 0 23 7 26 15 4 8
13 15 21 15 8 0 27 9 42 19 15 11 34 21 42 23 8 2 16 5 19 8 14 14 67 40 83
40 9 0 27 -6 40 -12z m-2403 -814 c0 -4 -25 -36 -55 -71 -30 -36 -55 -68 -55
-73 0 -4 -7 -24 -15 -44 -15 -35 -17 -36 -38 -21 -27 19 -37 19 -37 0 0 -8 7
-15 15 -15 8 0 15 -8 15 -17 0 -15 2 -16 10 -3 12 20 21 9 13 -18 -3 -13 -12
-21 -22 -20 -12 2 -16 -5 -17 -27 -1 -16 -2 -40 -3 -52 0 -13 -7 -23 -16 -23
-8 0 -15 -7 -15 -15 0 -8 -5 -15 -10 -15 -6 0 -9 -3 -8 -7 1 -5 -5 -21 -12
-38 -7 -16 -12 -36 -11 -42 1 -7 -3 -13 -9 -13 -13 0 -12 40 4 115 7 33 9 61
5 63 -5 2 -2 10 6 19 19 19 9 36 -18 29 -24 -6 -57 10 -57 27 0 7 9 32 20 55
18 37 23 41 49 36 16 -4 32 -1 35 5 4 6 12 9 17 6 5 -4 9 1 9 9 0 9 5 16 11
16 6 0 8 8 4 19 -5 16 -1 19 27 18 25 -2 33 3 36 17 4 18 3 19 -13 3 -21 -21
-21 -21 -21 2 0 21 32 36 42 20 6 -10 64 20 64 34 0 4 4 6 9 3 5 -3 11 1 15 9
5 15 26 21 26 9z m3210 -225 c0 -16 -4 -19 -20 -14 -14 4 -20 2 -20 -8 0 -21
12 -28 27 -16 10 9 13 5 13 -24 0 -19 6 -38 13 -40 7 -3 5 -6 -5 -6 -25 -1
-23 -21 2 -21 21 0 21 1 22 -158 0 -18 -5 -39 -11 -45 -6 -6 -11 -20 -11 -31
-1 -12 -11 -34 -24 -50 -22 -27 -26 -28 -56 -17 -35 12 -101 14 -136 5 -16 -4
-20 -11 -16 -31 3 -18 1 -24 -7 -19 -6 4 -11 16 -11 27 0 22 -32 25 -91 9 -27
-8 -41 -19 -53 -45 -17 -35 -36 -47 -36 -22 0 7 7 22 15 33 8 10 14 26 14 34
0 10 -2 11 -6 3 -6 -15 -23 -17 -23 -3 0 11 56 27 123 35 27 3 57 10 67 15 9
5 20 7 23 4 3 -3 8 -1 12 5 3 7 -3 11 -17 12 -21 0 -21 1 -4 8 23 9 31 41 10
41 -27 0 -14 20 14 21 l27 1 -30 8 c-24 6 -25 8 -8 9 16 1 21 6 17 16 -4 9 -1
15 7 15 10 0 10 3 1 12 -7 7 -12 20 -12 30 0 10 -8 22 -19 26 -13 5 -16 12
-10 27 7 19 8 19 8 1 1 -32 31 2 31 35 0 19 5 29 15 29 8 0 15 5 15 10 0 6 -9
10 -20 10 -31 0 -24 20 8 21 26 1 26 1 -6 10 -28 8 -32 12 -21 25 9 11 14 12
19 3 6 -8 9 -8 15 1 12 19 46 29 103 29 46 1 52 -1 52 -20z m-1540 -236 c36
-34 43 -49 66 -143 29 -115 28 -175 -2 -259 -18 -52 -18 -55 56 -241 12 -30
24 -65 27 -77 3 -13 9 -23 13 -23 5 0 11 -9 15 -19 3 -10 17 -31 32 -45 14
-14 23 -26 19 -26 -4 0 0 -7 8 -16 9 -8 16 -23 17 -32 1 -21 64 -75 89 -77 11
-1 29 -14 42 -31 13 -16 33 -39 45 -50 13 -12 23 -30 23 -41 0 -25 -145 -175
-250 -258 -287 -228 -349 -297 -350 -388 0 -36 -1 -37 -19 -25 -32 23 -164
150 -194 187 -22 27 -28 44 -25 68 4 30 2 33 -24 33 -15 0 -28 4 -28 8 0 5 -7
17 -15 28 -13 18 -14 18 -8 -6 3 -14 10 -30 15 -36 4 -6 15 -35 24 -63 12 -41
13 -56 3 -67 -20 -24 -68 -17 -111 17 -37 30 -41 31 -79 20 -46 -14 -95 -7
-123 18 -21 19 -47 66 -40 73 12 13 -53 1 -153 -28 -54 -16 -150 -20 -221 -9
-88 14 -121 1 -206 -81 l-78 -75 -67 -1 c-84 -2 -137 24 -186 90 -41 56 -59
122 -59 219 0 61 3 76 22 96 16 17 30 23 47 19 15 -2 25 0 25 7 0 6 5 11 11
11 6 0 29 16 52 35 39 34 77 46 77 24 0 -5 5 -7 11 -3 8 4 7 9 -2 15 -12 8
-11 11 1 19 8 5 20 10 26 10 6 0 17 7 24 15 19 23 31 7 25 -36 -3 -25 -1 -38
5 -34 6 3 10 22 10 41 0 19 5 34 11 34 6 0 9 6 6 14 -3 8 0 22 8 33 13 17 14
17 20 1 10 -25 25 -22 25 5 0 12 5 29 10 37 7 12 12 8 21 -18 6 -18 14 -30 17
-27 6 6 52 -83 52 -102 0 -16 33 -25 64 -17 28 7 36 24 11 24 -10 0 -16 11
-16 30 -3 50 -4 55 -10 60 -3 3 -9 34 -13 70 l-7 65 28 -32 c33 -38 43 -41 43
-14 0 22 19 21 164 -5 43 -8 87 -14 97 -14 25 0 24 20 -1 27 -20 5 -29 33 -10
33 6 0 10 -5 10 -11 0 -5 5 -7 11 -4 6 4 8 13 5 21 -3 8 -1 14 4 14 6 0 10 -8
10 -17 0 -15 2 -15 9 -4 5 8 6 21 3 30 -9 24 -44 61 -59 61 -7 0 -13 5 -13 10
0 6 -7 10 -15 10 -8 0 -15 7 -15 15 0 7 -8 18 -17 24 -15 8 -15 11 -3 27 13
16 13 17 -2 11 -13 -5 -18 -1 -18 13 0 12 -7 20 -17 20 -23 0 -63 39 -63 61 0
29 14 30 43 3 20 -19 33 -23 53 -18 17 4 29 2 34 -6 4 -7 31 -14 58 -15 28 -2
55 -5 59 -8 16 -10 153 -1 165 11 9 9 7 12 -10 12 -31 0 -48 61 -34 125 6 26
8 53 6 59 -3 7 7 22 20 35 19 18 24 30 19 52 -3 17 -1 29 5 29 14 0 35 -65 38
-113 1 -21 5 -41 9 -45 4 -4 6 0 4 8 -1 8 0 22 3 30 16 44 30 131 23 147 -4
10 -9 28 -11 40 -1 13 -5 32 -9 43 -10 31 18 25 33 -7 6 -15 12 -34 12 -42 1
-14 2 -14 10 0 9 15 18 69 19 117 1 12 5 22 9 22 8 0 37 -51 58 -105 7 -16 13
-23 13 -14 1 17 31 36 31 19 0 -5 9 -12 20 -15 11 -3 20 -15 20 -26 0 -22 11
-24 57 -7 18 7 34 19 34 28 1 8 2 40 3 70 1 54 24 103 71 151 8 9 15 21 15 27
0 6 15 21 33 33 17 13 38 29 45 36 24 23 61 14 102 -24z m-2570 -136 c19 -7
40 -16 47 -20 6 -4 14 -3 18 3 3 5 20 8 38 6 18 -3 36 -5 40 -5 5 -1 7 -16 5
-33 -3 -30 -6 -33 -38 -33 -19 0 -39 2 -45 5 -5 3 -39 5 -75 5 -71 0 -80 8
-61 58 12 30 21 32 71 14z m-255 -439 c39 -2 129 1 200 5 72 5 128 6 125 4 -3
-3 -7 -5 -10 -4 -3 1 -16 -6 -30 -16 -13 -9 -30 -17 -37 -17 -6 0 -23 -11 -37
-24 -20 -18 -42 -25 -98 -30 -82 -7 -265 -19 -288 -18 -8 1 -63 1 -122 2 -60
0 -108 4 -108 9 0 5 -8 7 -19 4 -24 -6 -33 9 -25 40 12 50 108 60 449 45z
m921 -783 c3 -8 -7 -31 -24 -52 -16 -21 -32 -48 -36 -60 -4 -11 -28 -40 -54
-63 -26 -22 -54 -48 -63 -56 -25 -23 -29 -61 -13 -123 20 -73 48 -122 97 -162
22 -19 56 -49 76 -67 20 -19 62 -47 94 -63 l57 -29 93 21 c108 25 163 54 207
109 33 42 70 126 70 160 0 24 37 47 53 31 6 -6 11 -49 11 -95 0 -46 4 -79 8
-73 12 19 23 -2 22 -41 -1 -20 -6 -64 -11 -97 -49 -305 -71 -420 -105 -540
-22 -77 -47 -169 -54 -205 -8 -36 -30 -132 -50 -215 -20 -82 -51 -215 -70
-295 -19 -80 -39 -155 -44 -168 -6 -14 -36 -34 -85 -56 -81 -38 -215 -86 -237
-86 -7 0 -29 -11 -48 -24 -72 -49 -187 -54 -254 -11 -12 7 -50 23 -86 34 -36
12 -90 36 -120 54 -30 18 -72 41 -92 52 -21 11 -38 23 -38 27 0 5 -6 8 -13 8
-16 0 -107 61 -184 124 -33 28 -80 66 -102 84 -23 18 -48 46 -56 63 -17 31
-48 232 -41 258 3 9 8 79 11 156 7 145 19 217 55 344 32 113 61 177 205 461
36 69 122 156 200 200 104 59 158 100 245 191 47 48 110 103 140 122 30 19 68
46 84 60 30 26 52 33 114 36 21 0 35 -4 38 -14z"/>
<path d="M6541 7508 c4 -29 8 -87 9 -128 2 -91 17 -67 22 34 1 36 6 66 10 66
4 0 8 -33 10 -72 3 -67 5 -73 26 -76 15 -2 22 2 23 15 3 47 9 100 14 121 4 18
-4 28 -49 57 -30 19 -59 35 -64 35 -5 0 -5 -24 -1 -52z"/>
<path d="M864 4876 c-34 -52 -40 -56 -75 -56 -46 0 -89 -15 -89 -31 0 -7 16
-32 36 -56 l36 -44 -11 -56 c-19 -95 -15 -98 73 -64 l49 18 49 -28 c73 -43 78
-41 78 39 0 69 0 69 45 111 26 24 44 48 42 55 -2 6 -30 20 -63 31 -52 18 -61
25 -77 60 -40 90 -46 91 -93 21z m73 -28 c19 -51 22 -54 78 -72 l57 -18 -40
-42 c-38 -38 -41 -46 -44 -103 l-3 -63 -47 31 -47 31 -61 -20 -60 -21 6 27 c3
15 10 41 14 59 7 28 4 39 -27 78 -19 26 -33 48 -31 50 6 6 48 13 80 14 22 1
35 12 60 51 18 27 36 50 39 50 4 0 15 -24 26 -52z"/>
<path d="M8784 4875 c-34 -51 -40 -55 -75 -55 -42 0 -89 -15 -89 -28 0 -5 17
-31 37 -57 l36 -48 -11 -57 c-7 -31 -12 -62 -12 -68 0 -18 32 -15 84 8 l46 19
51 -29 c79 -47 82 -45 79 55 -1 48 1 53 45 94 25 24 44 48 42 55 -2 6 -30 19
-61 30 -57 18 -59 20 -84 77 -14 32 -31 59 -39 59 -7 0 -29 -25 -49 -55z m75
-30 c22 -52 25 -55 78 -70 l56 -16 -41 -42 c-38 -39 -41 -47 -44 -104 l-3 -63
-48 32 -47 31 -54 -21 c-30 -11 -56 -18 -59 -15 -3 2 -2 17 3 31 22 71 21 79
-16 127 -19 26 -34 48 -32 50 2 2 28 7 58 12 51 8 57 11 85 55 17 26 33 48 36
48 3 0 15 -25 28 -55z"/>
<path d="M2601 1463 c-19 -32 -54 -91 -78 -132 -24 -40 -43 -81 -41 -90 5 -23
54 -44 87 -36 41 9 97 70 133 144 28 58 29 67 19 102 -12 39 -43 69 -71 69 -9
0 -31 -26 -49 -57z"/>
<path d="M4211 970 c-20 -28 -33 -62 -41 -112 -19 -109 1 -177 56 -198 80 -31
144 59 145 204 1 113 -21 146 -95 146 -30 0 -40 -6 -65 -40z"/>
<path d="M5022 977 c-32 -34 -47 -121 -33 -198 17 -98 59 -145 120 -133 50 10
74 53 79 143 8 135 -31 211 -106 211 -27 0 -45 -7 -60 -23z"/>
</g>
</svg>
